# xmcd
#
# Track frame offsets:
#	150
#	12498
#	24096
#	32994
#	47517
#	59115
#	69513
#	86136
#	98484
#	114357
#	125880
#	136728
#	153351
#	175149
#	188922
#	206970
#	218118
#	230916
#	240864
#	253812
#	265185
#	278658
#	291006
#	302379
#	313602
#
# Disc length: 4334 seconds
#
# Revision: 1
# Processed by: cddbd v1.5.2PL0 Copyright (c) Steve Scherf et al.
# Submitted via: audiograbber 1.83.01
#
DISCID=6510ec19
DTITLE=Various Artist - 25 Greatest Country Hits of All Time Disc 2
DYEAR=2009
DGENRE=Country
TTITLE0=Okies From Muskogee - Merle Haggard
TTITLE1=Just Out Of Reach - Willie Nelson
TTITLE2=Blue Blue Day - Don Gibson
TTITLE3=You've Never Been This Far Before - Conway Twitty
TTITLE4=I Can't Help You - Skeeter Davis
TTITLE5=Hello Walls - Faron Young
TTITLE6=Johnny One Time - Brenda Lee
TTITLE7=Walk The Line - Johnny Cash
TTITLE8=Blanket On The Ground - Billie Jo Spears
TTITLE9=The Story Of My Life - Marty Robbins
TTITLE10=Gone - Ferlin Husky
TTITLE11=Today I Started Loving You Again - Merle Haggard
TTITLE12=Big Four Poster Bed - Brenda Lee
TTITLE13=Baby's Got Her Blue Jeans On - Mel McDaniel
TTITLE14=Crazy - Willie Nelson
TTITLE15=Who Cares - Don Gibson
TTITLE16=Four Walls - Jim Reeves
TTITLE17=Ballad Of A Teenage Queen - Johnny Cash
TTITLE18='57 Chevrolet - Billie Jo Spears
TTITLE19=A White Sport Coat - Marty Robbins
TTITLE20=My Special Angel - Bobby Helms
TTITLE21=Am I Losing You - Jim Reeves
TTITLE22=My Shoes Keep Walking Back To You - Ray Price
TTITLE23=Send Me The Pillow That You Dream On - Hank Locklin
TTITLE24=A Dear John Letter - Ferlin Husky
EXTD=
EXTT0=
EXTT1=
EXTT2=
EXTT3=
EXTT4=
EXTT5=
EXTT6=
EXTT7=
EXTT8=
EXTT9=
EXTT10=
EXTT11=
EXTT12=
EXTT13=
EXTT14=
EXTT15=
EXTT16=
EXTT17=
EXTT18=
EXTT19=
EXTT20=
EXTT21=
EXTT22=
EXTT23=
EXTT24=
PLAYORDER=
